<svg width="47" height="20" viewBox="0 0 47 20" fill="none" xmlns="http://www.w3.org/2000/svg">
<path d="M45.7834 3.93904C45.5468 3.49666 45.225 3.10492 44.8362 2.78619C44.4473 2.46747 43.9991 2.22798 43.5172 2.08144C43.0352 1.9349 42.529 1.88412 42.0273 1.93208C41.5257 1.98003 41.0383 2.12576 40.5933 2.36091L21.7349 12.3756L25.612 1.95741L25.652 1.84806C25.7466 1.59164 25.762 1.31301 25.6967 1.04773C25.6313 0.782451 25.488 0.542645 25.2849 0.358685C25.0819 0.174725 24.8284 0.0550084 24.5566 0.0149041C24.2848 -0.0252002 24.0071 0.0160647 23.759 0.133449L0.482765 11.177C0.281005 11.2772 0.126051 11.4512 0.0504536 11.6624C-0.0251439 11.8737 -0.0154564 12.1057 0.0772867 12.3101C0.17003 12.5145 0.338719 12.6753 0.548059 12.7588C0.757399 12.8423 0.990964 12.842 1.2001 12.7581L21.35 4.18488L14.9968 16.5423C14.8411 16.848 14.7528 17.1832 14.738 17.5255C14.7233 17.8678 14.7824 18.2093 14.9112 18.5271C15.0298 18.8153 15.2044 19.0775 15.425 19.2986C15.6455 19.5198 15.9079 19.6954 16.1969 19.8158C16.4858 19.9361 16.7956 19.9987 17.1089 20C17.4221 20.0012 17.7325 19.941 18.0224 19.8229L18.2696 19.7229L43.8693 9.28928C43.9897 9.24211 44.1068 9.18736 44.2202 9.12539C45.1191 8.64339 45.7887 7.82644 46.0818 6.85392C46.3749 5.8814 46.2676 4.83293 45.7834 3.93904Z" fill="white"/>
</svg>
