<svg width="74" height="14" fill="none" version="1.1" viewBox="0 0 74 14" xmlns="http://www.w3.org/2000/svg">
 <path d="m29.356-0.10352c-0.8392 0.0049-1.2674 0.37222-1.709 1.1992l-6.0859 12.811h3.4023l4.1211-8.8301 2.5742 8.8301h2.8379l6.2188-8.7812-0.0332 8.7812h2.9277l-0.02148-12.307h2e-3c0-1.1929-0.73099-1.6739-1.4629-1.6934-0.6831-0.0171-1.1796 0.23646-1.7676 1.0684l-6.9102 9.8223-2.6582-9.6094c-0.27575-0.9709-0.8793-1.291-1.4356-1.291zm40.887 2.0078c-5.3039 0-8.6712 2.5655-9.0859 6.3809-0.366 3.3787 1.9166 5.8184 6.8301 5.8184 1.0281-0.0073 2.0537-0.10547 3.0645-0.29297l0.59375-2.5625c-1.175 0.3573-2.4012 0.52053-3.6289 0.48633-2.4982-0.0366-3.9242-1.5147-3.7168-3.3906h2e-3c0.2757-2.5371 2.4866-4.081 5.5801-4.0566 1.068-0.0102 2.1315 0.11133 3.1699 0.36133l0.53706-2.3496c-1.0993-0.2459-2.2194-0.37773-3.3457-0.39453zm-61.168 0.33594 0.00195 2e-3h-5.9824l-2.6836 11.672h3.0527l1.0098-4.3906h1.5762l2.7168 4.3906h3.3438l-3.0469-4.6484c2.7031-0.7026 3.6223-2.1501 3.793-3.6992 0.1708-1.5491-0.69262-3.3262-3.7812-3.3262zm8.541 0.0059-2.7246 11.662h3.1055l1.9766-8.5645 0.71484-3.0977zm37.357 0.0059c-0.09329-5e-3 -0.1864-0.0024-0.28125 0.0059-0.4757 0.0414-0.97592 0.24319-1.4785 0.96289l-7.3691 10.691h3.0234l1.498-2.3906h5.4922l0.56836 2.3867h2.9629l-2.8379-10.16c-0.32454-1.078-0.92511-1.4613-1.5781-1.4961zm1.4531 11.656h-2e-3l0.0039 0.0098zm-50.682-9.879h2.3145c1.2271 0 1.8676 0.59998 1.748 1.7051h0.00195c-0.12686 1.1417-1.1978 1.8145-2.6836 1.8145h-2.1953zm48.742 1.4844 0.89258 4.0332h-3.75z" fill="#fff"/>
</svg>
